Two.and.a.Half.Men.S10E01.HDTV.x264-LOL.mp4

Screenshots:
 
http://imageshack.us/a/img191/1392/vlcsnap2012092814h25m19.png 
http://imageshack.us/a/img401/8772/vlcsnap2012092814h25m15.png 
http://imageshack.us/a/img253/3690/vlcsnap2012092814h25m11.png

NFO:

Format                                   : MPEG-4
Format profile                           : Base Media
Codec ID                                 : isom
File size                                : 132 MiB
Duration                                 : 21mn 13s
Overall bit rate mode                    : Variable
Overall bit rate                         : 868 Kbps
Encoded date                             : UTC 2012-09-26 17:09:12
Tagged date                              : UTC 2012-09-26 17:09:12

Video
ID                                       : 1
Format                                   : AVC
Format/Info                              : Advanced Video Codec
Format profile                           : High@L3.1
Format settings, CABAC                   : Yes
Format settings, ReFrames                : 5 frames
Codec ID                                 : avc1
Codec ID/Info                            : Advanced Video Coding
Duration                                 : 21mn 13s
Bit rate                                 : 750 Kbps
Maximum bit rate                         : 1 950 Kbps
Width                                    : 720 pixels
Height                                   : 404 pixels
Display aspect ratio                     : 16:9
Frame rate mode                          : Constant
Frame rate                               : 23.976 fps
Color space                              : YUV
Chroma subsampling                       : 4:2:0
Bit depth                                : 8 bits
Scan type                                : Progressive
Bits/(Pixel*Frame)                       : 0.108
Stream size                              : 114 MiB (86%)
Writing library                          : x264 core 128 r2216 198a7ea
Encoding settings                        : cabac=1 / ref=5 / deblock=1:1:1 / analyse=0x3:0x133 / me=umh / subme=9 / psy=1 / psy_rd=1.00:0.00 / mixed_ref=1 / me_range=16 / chroma_me=1 / trellis=2 / 8x8dct=1 / cqm=0 / deadzone=21,11 / fast_pskip=0 / chroma_qp_offset=-2 / threads=16 / lookahead_threads=2 / sliced_threads=0 / nr=0 / decimate=1 / interlaced=0 / bluray_compat=0 / constrained_intra=0 / bframes=3 / b_pyramid=2 / b_adapt=2 / b_bias=0 / direct=3 / weightb=1 / open_gop=0 / weightp=2 / keyint=250 / keyint_min=23 / scenecut=40 / intra_refresh=0 / rc_lookahead=60 / rc=crf / mbtree=1 / crf=19.0 / qcomp=0.60 / qpmin=0 / qpmax=69 / qpstep=4 / ip_ratio=1.40 / aq=1:1.00
Encoded date                             : UTC 2012-09-27 15:40:03
Tagged date                              : UTC 2012-09-26 17:09:15
Matrix coefficients                      : BT.709

Audio
ID                                       : 2
Format                                   : AAC
Format/Info                              : Advanced Audio Codec
Format profile                           : LC
Codec ID                                 : 40
Duration                                 : 21mn 13s
Bit rate mode                            : Variable
Bit rate                                 : 114 Kbps
Maximum bit rate                         : 155 Kbps
Channel(s)                               : 2 channels
Channel positions                        : Front: L R
Sampling rate                            : 48.0 KHz
Compression mode                         : Lossy
Delay relative to video                  : 83ms
Stream size                              : 17.3 MiB (13%)
Encoded date                             : UTC 2012-09-26 17:09:14
Tagged date                              : UTC 2012-09-26 17:09:15
